<svg width="214" height="24" viewBox="0 0 214 24" fill="none" xmlns="http://www.w3.org/2000/svg">
<path fill-rule="evenodd" clip-rule="evenodd" d="M58.3483 24C54.3943 24 51.287 22.1164 49.0261 18.3491C48.191 16.7212 47.7739 15.0696 47.7739 13.3956C47.7739 9.43035 49.6522 6.31383 53.4088 4.04645C55.032 3.20942 56.6785 2.79069 58.3483 2.79069C62.3022 2.79069 65.4095 4.67434 67.6704 8.44207C68.5055 10.0699 68.9231 11.7211 68.9231 13.3956C68.9231 17.3608 67.0443 20.4769 63.2877 22.7442C61.6641 23.5813 60.018 24 58.3483 24ZM66.9051 13.8839V12.9068C66.9051 10.2445 65.5138 7.91876 62.731 5.9301C61.2353 5.18641 59.9366 4.81392 58.8352 4.81392H57.8613C55.2061 4.81392 52.887 6.20926 50.9044 8.99995C50.1619 10.4999 49.7914 11.8023 49.7914 12.9068V13.8839C49.7914 16.5466 51.1828 18.8724 53.9655 20.8606C55.4612 21.6047 56.7595 21.9768 57.8613 21.9768H58.8352C61.4904 21.9768 63.8095 20.5814 65.7921 17.7907C66.5341 16.2908 66.9051 14.9888 66.9051 13.8839ZM43.6622 15.3488H26.6178V15.4188C26.6178 16.6629 27.3365 18.1282 28.7745 19.814C30.3628 21.3027 32.1252 22.0468 34.0617 22.0468H35.0355C35.1281 22.0584 35.1747 22.1047 35.1747 22.1859V23.8604C35.1747 23.9538 35.1281 24 35.0355 24H33.7833C30.7105 24 28.0669 22.4188 25.8525 19.2557C25.0174 17.5933 24.5999 16.105 24.5999 14.7909V13.9534C24.5999 10.8724 26.177 8.22125 29.3308 6.00011C30.9889 5.16264 32.4729 4.74434 33.7833 4.74434H34.618C37.6907 4.74434 40.3343 6.32593 42.5492 9.48825C43.3838 11.1515 43.8014 12.6398 43.8014 13.9534V15.2092C43.8014 15.3025 43.7548 15.3488 43.6622 15.3488ZM41.7839 13.3256C41.7839 12.0815 41.0647 10.6165 39.6272 8.93037C38.0385 7.44212 36.2761 6.69756 34.34 6.69756H34.0617C31.1625 6.69756 28.9132 8.13958 27.3133 11.0232C26.8496 12.0119 26.6178 12.8022 26.6178 13.3956H41.7839V13.3256ZM1.94812 5.0235V11.9302C1.94812 12.0236 1.90158 12.0698 1.80893 12.0698H0.139182C0.0465376 12.0698 0 12.0236 0 11.9302V0H0.0698064L17.2534 18.9769V12.0698C17.265 11.9769 17.3116 11.9302 17.3926 11.9302H19.0623C19.155 11.9419 19.2015 11.9885 19.2015 12.0698V24H19.1317L1.94812 5.0235Z" fill="url(#paint0_linear_577_8)"/>
<path d="M86.91 12.08C88.11 12.46 89.05 13.1 89.73 14C90.41 14.88 90.75 15.97 90.75 17.27C90.75 19.11 90.03 20.53 88.59 21.53C87.17 22.51 85.09 23 82.35 23H71.49V2H81.75C84.31 2 86.27 2.49 87.63 3.47C89.01 4.45 89.7 5.78 89.7 7.46C89.7 8.48 89.45 9.39 88.95 10.19C88.47 10.99 87.79 11.62 86.91 12.08ZM76.32 5.66V10.61H81.15C82.35 10.61 83.26 10.4 83.88 9.98C84.5 9.56 84.81 8.94 84.81 8.12C84.81 7.3 84.5 6.69 83.88 6.29C83.26 5.87 82.35 5.66 81.15 5.66H76.32ZM81.99 19.34C83.27 19.34 84.23 19.13 84.87 18.71C85.53 18.29 85.86 17.64 85.86 16.76C85.86 15.02 84.57 14.15 81.99 14.15H76.32V19.34H81.99ZM108.509 18.5H98.7595L96.8995 23H91.9195L101.279 2H106.079L115.469 23H110.369L108.509 18.5ZM106.979 14.81L103.649 6.77L100.319 14.81H106.979ZM137.158 2V23H133.168L122.698 10.25V23H117.898V2H121.918L132.358 14.75V2H137.158ZM150.027 14.75L147.207 17.69V23H142.377V2H147.207V11.81L156.507 2H161.907L153.207 11.36L162.417 23H156.747L150.027 14.75ZM171.294 23.36C169.634 23.36 168.024 23.14 166.464 22.7C164.924 22.24 163.684 21.65 162.744 20.93L164.394 17.27C165.294 17.93 166.364 18.46 167.604 18.86C168.844 19.26 170.084 19.46 171.324 19.46C172.704 19.46 173.724 19.26 174.384 18.86C175.044 18.44 175.374 17.89 175.374 17.21C175.374 16.71 175.174 16.3 174.774 15.98C174.394 15.64 173.894 15.37 173.274 15.17C172.674 14.97 171.854 14.75 170.814 14.51C169.214 14.13 167.904 13.75 166.884 13.37C165.864 12.99 164.984 12.38 164.244 11.54C163.524 10.7 163.164 9.58 163.164 8.18C163.164 6.96 163.494 5.86 164.154 4.88C164.814 3.88 165.804 3.09 167.124 2.51C168.464 1.93 170.094 1.64 172.014 1.64C173.354 1.64 174.664 1.8 175.944 2.12C177.224 2.44 178.344 2.9 179.304 3.5L177.804 7.19C175.864 6.09 173.924 5.54 171.984 5.54C170.624 5.54 169.614 5.76 168.954 6.2C168.314 6.64 167.994 7.22 167.994 7.94C167.994 8.66 168.364 9.2 169.104 9.56C169.864 9.9 171.014 10.24 172.554 10.58C174.154 10.96 175.464 11.34 176.484 11.72C177.504 12.1 178.374 12.7 179.094 13.52C179.834 14.34 180.204 15.45 180.204 16.85C180.204 18.05 179.864 19.15 179.184 20.15C178.524 21.13 177.524 21.91 176.184 22.49C174.844 23.07 173.214 23.36 171.294 23.36Z" fill="#4A35C5"/>
<defs>
<linearGradient id="paint0_linear_577_8" x1="19.2985" y1="8.34043" x2="19.1408" y2="39.4895" gradientUnits="userSpaceOnUse">
<stop offset="0.236718" stop-color="#260CBC"/>
<stop offset="0.98292" stop-color="#6756FF"/>
</linearGradient>
</defs>
</svg>
